PathFileType	4	(X/Y/Z)	C:/Users/beibeiliu/ov580/test_trc\sequence.37_training_dense_right.trc
DataRate	CameraRate	NumFrames	NumMarkers	Units	OrigDataRate	OrigDataStartFrame	OrigNumFrames
120	120	8	19	mm	120	102	152
Frame#	Time	ThumbCMC			ThumbMCP			ThumbIP			ThumbTip			IndexMCP			IndexPIP			IndexTip			MiddleMCP			MiddlePIP			MiddleTip			RingMCP			RingPIP			RingTip			PinkyMCP			PinkyPIP			PinkyTip			BackHand1			BackHand2			BackHand3	
		X0	Y0	Z0	X1	Y1	Z1	X2	Y2	Z2	X3	Y3	Z3	X4	Y4	Z4	X5	Y5	Z5	X6	Y6	Z6	X7	Y7	Z7	X8	Y8	Z8	X9	Y9	Z9	X10	Y10	Z10	X11	Y11	Z11	X12	Y12	Z12	X13	Y13	Z13	X14	Y14	Z14	X15	Y15	Z15	X16	Y16	Z16	X17	Y17	Z17	X18	Y18	Z18	
101	0.841667	44.3026	16.7841	53.0873	31.0944	23.6755	35.697	19.3322	33.515	15.306	13.8771	34.8763	-1.65974	47.4257	40.1192	-10.1151	44.3255	45.7542	-32.6464	43.477	41.0399	-60.0228	74.0455	44.4703	-14.2865	74.5255	52.6652	-35.4281	76.6473	56.2507	-66.0179	89.4912	37.2721	-5.98364	94.7668	47.4465	-27.1833	95.4336	53.2319	-50.3439	106.252	22.3564	6.40614	115.302	35.3013	-9.86165	123.188	46.9928	-23.9638	90.2455	25.5255	33.5539	90.4372	24.5442	57.2993	67.4296	32.0789	42.8372	
102	0.85	48.0766	14.9379	55.0297	29.0066	23.8429	39.3117	19.5959	33.1706	16.5183	19.2882	31.8574	-1.95742	52.3089	42.6819	-4.01737	50.4279	52.0257	-28.4421	47.7018	45.2454	-55.4262	75.4413	47.0197	-7.84085	78.2956	58.3731	-34.8026	80.2054	53.1194	-65.9672	92.6532	38.0131	-1.08598	94.3694	51.1288	-23.6978	93.6191	52.1959	-48.795	107.482	27.8213	7.85773	114.671	38.7456	-8.0867	119.285	44.1757	-28.2922	89.7434	29.1164	31.1245	93.4974	25.1684	60.3582	69.0431	32.236	45.9973	
103	0.858333	46.8537	14.8886	59.2278	31.1505	23.4097	41.0172	25.1462	30.4926	18.9991	26.0716	31.0884	-7.29351	58.0088	47.1572	-2.59307	52.6236	56.3816	-28.0991	48.424	46.8509	-53.2236	80.2329	48.5655	-4.85927	78.6431	60.4538	-32.5198	77.4363	51.5077	-59.7476	93.3687	42.4537	0.0881378	96.7407	51.6835	-21.896	94.0405	47.0746	-47.3646	111.164	29.1559	10.024	113.773	40.5847	-7.24357	112.948	39.7404	-31.5507	94.5485	28.6506	34.5914	94.0398	24.8115	61.6605	66.8228	32.8433	49.629	
104	0.866667	52.072	14.8691	57.8316	28.6762	25.0587	38.7623	27.6682	28.1515	15.1274	32.0267	23.2228	-6.20875	56.7284	49.7606	1.44902	55.5524	60.1718	-27.1365	55.8975	45.8303	-50.2809	78.9635	54.3173	-4.38289	85.0532	61.3532	-31.3691	82.8672	45.4974	-57.5488	97.9389	43.1667	0.494962	96.2728	51.5457	-26.1014	94.819	35.5649	-48.0409	112.04	27.8191	9.78159	115.412	36.0274	-14.0555	103.135	22.911	-36.2471	96.1939	29.2206	38.8587	97.7009	23.3136	62.9942	73.729	31.8278	50.1442	
105	0.875	50.1024	20.6375	54.3605	28.4357	21.3969	32.8308	25.5862	21.4642	6.76432	38.6609	12.9104	-13.4201	60.8934	54.9312	-1.60986	59.4823	61.2948	-27.649	56.2178	44.5797	-48.4522	84.1218	55.055	-5.88931	88.5191	60.8039	-32.0675	81.9189	37.4742	-55.0532	97.9081	45.4365	-5.15656	95.8123	44.5622	-31.7079	89.3342	25.1967	-44.8512	113.091	27.4217	2.92945	109.176	24.9039	-23.5018	96.2939	6.96149	-31.1797	97.3954	32.3928	35.0135	96.365	28.0831	61.5005	71.6486	37.3183	46.826	
106	0.883333	45.5595	24.3463	51.3241	28.6362	17.7826	27.4626	28.2763	14.6684	0.920205	39.5528	5.45641	-15.9548	63.9883	57.7669	-5.96964	62.4349	61.911	-30.9336	56.0599	38.4043	-49.9791	86.9044	57.6573	-11.7389	87.7008	56.7797	-41.1557	77.1781	26.322	-52.9267	97.7048	46.2507	-10.7514	94.6879	38.8402	-35.0989	83.3982	15.9227	-39.8948	113.378	26.4031	-2.06136	105.983	14.3103	-26.3783	92.8569	-2.93831	-26.1295	102.322	38.6585	33.1538	101.235	32.2831	60.1457	73.6839	44.2196	44.2993	
107	0.891667	47.5067	28.8925	47.3435	36.7421	18.3555	21.5539	31.6102	13.9444	-3.14426	36.9583	5.04214	-23.446	59.8416	63.8002	-10.4142	53.7278	59.8532	-39.5515	51.1966	29.2859	-46.2405	82.087	62.9761	-20.3464	79.5943	52.7187	-46.6833	75.3982	22.0106	-47.5828	95.5614	48.1464	-17.2412	92.4778	30.5312	-40.3114	79.5816	10.4005	-32.8738	112.391	31.5187	-10.4667	104.467	19.0416	-27.6556	85.211	0.0707853	-22.8812	102.144	46.332	29.6556	98.9519	43.3356	54.1715	74.0216	51.4707	43.522	
108	0.9	53.8152	38.6699	44.5502	37.7397	27.1769	17.7703	28.718	21.0724	-2.51537	32.0109	15.2836	-24.0843	60.2623	66.444	-16.5073	53.4498	50.4803	-43.2414	49.7402	21.9132	-35.6211	78.5925	62.0182	-22.5995	77.6998	43.1794	-48.7591	67.8225	15.1948	-35.8394	94.8101	48.7597	-25.5077	88.9075	25.896	-38.5681	78.5796	5.3147	-21.0171	111.021	36.5591	-16.5139	101.201	22.4858	-27.7118	84.6039	2.68452	-18.4739	104.547	55.2142	26.3183	100.24	54.7723	51.2506	77.0496	63.728	40.3559	
